<svg width="34" height="29" viewBox="0 0 34 29" fill="none" xmlns="http://www.w3.org/2000/svg">
<path d="M9.59118 28.0874C13.1261 28.0874 17.0425 25.683 21.3393 20.8742C22.8618 23.4171 24.2994 25.6178 25.6519 27.4761H34C31.7677 24.8679 29.1029 20.8661 26.0079 15.4705C28.3082 12.5689 29.9572 10.0504 30.9549 7.91501C31.9536 5.7796 32.6219 3.35075 32.9598 0.628497H25.3991C25.2971 2.4868 25.0474 4.28805 24.65 6.03223C24.2526 7.77643 23.7161 9.47176 23.0392 11.1181C22.6334 10.352 22.3369 9.78958 22.151 9.43101L20.2991 5.78771C18.3196 1.94071 15.7484 0.0172119 12.5853 0.0172119C9.03338 0.0172119 6.04774 1.5006 3.62843 4.46736C1.20912 7.43408 0 11.0937 0 15.446C0 19.1953 0.888245 22.2394 2.66475 24.5786C4.44018 26.9178 6.74899 28.0874 9.59118 28.0874ZM11.2274 22.8892C9.95563 22.8892 9.00575 22.2273 8.37888 20.9034C7.75094 19.5795 7.4375 17.5854 7.4375 14.9211C7.4375 12.1906 7.85718 9.89032 8.69656 8.02033C9.53593 6.15034 10.574 5.21539 11.8107 5.21539C12.5874 5.21539 13.3652 5.86901 14.1429 7.17635L15.7856 9.98139C16.0151 10.3951 16.4921 11.3466 17.2167 12.836C17.5706 13.5476 17.8532 14.1267 18.0646 14.5736L19.125 16.6338C15.6974 20.8041 13.0645 22.8892 11.2274 22.8892Z" fill="white"/>
</svg>
