<svg width="55" height="40" viewBox="0 0 55 40" fill="none" xmlns="http://www.w3.org/2000/svg">
<path d="M1.94463 9.344H10.3606C11.534 9.344 12.6433 9.45067 13.6886 9.664C14.734 9.87733 15.6406 10.2507 16.4086 10.784C17.198 11.296 17.8166 12 18.2646 12.896C18.734 13.7707 18.9686 14.88 18.9686 16.224C18.9686 17.5467 18.7553 18.656 18.3286 19.552C17.902 20.448 17.3153 21.1627 16.5686 21.696C15.822 22.2293 14.9366 22.6133 13.9126 22.848C12.8886 23.0613 11.7793 23.168 10.5846 23.168H6.93663V32H1.94463V9.344ZM6.93663 18.944H10.2646C10.7126 18.944 11.1393 18.9013 11.5446 18.816C11.9713 18.7307 12.3446 18.592 12.6646 18.4C13.006 18.1867 13.2726 17.9093 13.4646 17.568C13.678 17.2053 13.7846 16.7573 13.7846 16.224C13.7846 15.648 13.646 15.1893 13.3686 14.848C13.1126 14.4853 12.7713 14.208 12.3446 14.016C11.9393 13.824 11.4806 13.7067 10.9686 13.664C10.4566 13.6 9.96596 13.568 9.49663 13.568H6.93663V18.944ZM22.0369 9.344H27.0289V32H22.0369V9.344ZM31.5696 9.344H38.3536L47.9856 25.088H48.0496V9.344H53.0416V32H46.5136L36.6256 15.872H36.5616V32H31.5696V9.344Z" fill="#FF1F23"/>
</svg>
